<svg width="269" height="222" viewBox="0 0 269 222" fill="none" xmlns="http://www.w3.org/2000/svg">
<mask id="path-1-outside-1_203:9" maskUnits="userSpaceOnUse" x="0" y="0" width="269" height="222" fill="black">
<rect fill="white" width="269" height="222"/>
<path fill-rule="evenodd" clip-rule="evenodd" d="M3 139.114C3 128.723 8.90319 119.336 18.4035 112.628C13.0784 102.975 11.9805 93.1582 16.3797 85.5385C17.7873 83.1005 19.6711 81.0374 21.9433 79.3518C21.6222 77.0186 21.4562 74.6344 21.4562 72.2106C21.4562 44.1797 43.6632 21.4562 71.057 21.4562C82.6917 21.4562 93.3908 25.5552 101.85 32.4189C109.177 15.0474 125.173 3 143.728 3C161.71 3 177.289 14.3146 184.902 30.8246C198.45 20.1706 214.845 17.0635 227.448 24.3399C240.152 31.674 245.645 47.6192 243.046 64.8343C254.251 71.8167 261.386 82.347 261.386 94.1272C261.386 101.536 258.564 108.451 253.681 114.3C261.358 121.576 266 131.055 266 141.421C266 162.935 246.005 180.627 220.39 182.737C217.841 191.589 212.589 198.995 204.844 203.467C196.046 208.546 185.576 208.946 175.479 205.491C169.538 211.625 162.214 215.246 154.291 215.246C146.555 215.246 139.39 211.794 133.525 205.922C119.952 217.905 103.293 221.994 90.8686 214.821C85.2554 211.58 81.2007 206.441 78.7733 200.144C60.5287 213.94 39.7139 217.062 29.1397 206.488C21.17 198.518 20.9806 184.731 27.2771 170.612C12.7153 164.123 3 152.444 3 139.114Z"/>
</mask>
<path fill-rule="evenodd" clip-rule="evenodd" d="M3 139.114C3 128.723 8.90319 119.336 18.4035 112.628C13.0784 102.975 11.9805 93.1582 16.3797 85.5385C17.7873 83.1005 19.6711 81.0374 21.9433 79.3518C21.6222 77.0186 21.4562 74.6344 21.4562 72.2106C21.4562 44.1797 43.6632 21.4562 71.057 21.4562C82.6917 21.4562 93.3908 25.5552 101.85 32.4189C109.177 15.0474 125.173 3 143.728 3C161.71 3 177.289 14.3146 184.902 30.8246C198.45 20.1706 214.845 17.0635 227.448 24.3399C240.152 31.674 245.645 47.6192 243.046 64.8343C254.251 71.8167 261.386 82.347 261.386 94.1272C261.386 101.536 258.564 108.451 253.681 114.3C261.358 121.576 266 131.055 266 141.421C266 162.935 246.005 180.627 220.39 182.737C217.841 191.589 212.589 198.995 204.844 203.467C196.046 208.546 185.576 208.946 175.479 205.491C169.538 211.625 162.214 215.246 154.291 215.246C146.555 215.246 139.39 211.794 133.525 205.922C119.952 217.905 103.293 221.994 90.8686 214.821C85.2554 211.58 81.2007 206.441 78.7733 200.144C60.5287 213.94 39.7139 217.062 29.1397 206.488C21.17 198.518 20.9806 184.731 27.2771 170.612C12.7153 164.123 3 152.444 3 139.114Z" fill="#FDC5CC"/>
<path d="M18.4035 112.628L20.1339 115.078L22.3273 113.53L21.0303 111.179L18.4035 112.628ZM16.3797 85.5385L18.9778 87.0385L18.9778 87.0385L16.3797 85.5385ZM21.9433 79.3518L23.7306 81.7613L25.1575 80.7028L24.9153 78.9428L21.9433 79.3518ZM101.85 32.4189L99.9601 34.7485L103.062 37.2654L104.614 33.5847L101.85 32.4189ZM184.902 30.8246L182.178 32.081L183.77 35.5321L186.757 33.1828L184.902 30.8246ZM227.448 24.3399L225.948 26.938L225.948 26.938L227.448 24.3399ZM243.046 64.8343L240.079 64.3863L239.785 66.337L241.459 67.3804L243.046 64.8343ZM253.681 114.3L251.378 112.377L249.573 114.54L251.617 116.477L253.681 114.3ZM220.39 182.737L220.144 179.747L218.08 179.917L217.507 181.906L220.39 182.737ZM204.844 203.467L206.344 206.065L206.344 206.065L204.844 203.467ZM175.479 205.491L176.45 202.653L174.649 202.037L173.324 203.404L175.479 205.491ZM133.525 205.922L135.648 203.802L133.655 201.805L131.54 203.673L133.525 205.922ZM90.8686 214.821L92.3686 212.223L92.3686 212.223L90.8686 214.821ZM78.7733 200.144L81.5726 199.065L80.1402 195.35L76.9639 197.751L78.7733 200.144ZM29.1397 206.488L27.0184 208.609L27.0184 208.609L29.1397 206.488ZM27.2771 170.612L30.017 171.834L31.2393 169.093L28.4981 167.871L27.2771 170.612ZM16.6731 110.177C6.60168 117.288 0 127.503 0 139.114H6C6 129.944 11.2047 121.383 20.1339 115.078L16.6731 110.177ZM13.7816 84.0385C8.65908 92.911 10.1699 103.913 15.7767 114.077L21.0303 111.179C15.9869 102.036 15.3019 93.4054 18.9778 87.0385L13.7816 84.0385ZM20.156 76.9424C17.5749 78.857 15.407 81.2233 13.7816 84.0385L18.9778 87.0385C20.1676 84.9777 21.7672 83.2177 23.7306 81.7613L20.156 76.9424ZM18.4562 72.2106C18.4562 74.7716 18.6316 77.2924 18.9713 79.7608L24.9153 78.9428C24.6128 76.7448 24.4562 74.4973 24.4562 72.2106H18.4562ZM71.057 18.4562C41.9417 18.4562 18.4562 42.5882 18.4562 72.2106H24.4562C24.4562 45.7711 45.3847 24.4562 71.057 24.4562V18.4562ZM103.74 30.0893C94.7711 22.8119 83.4111 18.4562 71.057 18.4562V24.4562C81.9724 24.4562 92.0105 28.2985 99.9601 34.7485L103.74 30.0893ZM143.728 0C123.8 0 106.813 12.9329 99.086 31.2531L104.614 33.5847C111.541 17.1619 126.547 6 143.728 6V0ZM187.627 29.5683C179.593 12.1477 163.039 0 143.728 0V6C160.38 6 174.984 16.4816 182.178 32.081L187.627 29.5683ZM228.948 21.7418C214.933 13.6497 197.196 17.3403 183.048 28.4665L186.757 33.1828C199.704 23.0009 214.758 20.4772 225.948 26.938L228.948 21.7418ZM246.012 65.2822C248.726 47.3111 243.076 29.8984 228.948 21.7418L225.948 26.938C237.227 33.4496 242.565 47.9273 240.079 64.3863L246.012 65.2822ZM264.386 94.1272C264.386 81.0422 256.461 69.6591 244.632 62.2881L241.459 67.3804C252.041 73.9742 258.386 83.6518 258.386 94.1272H264.386ZM255.984 116.222C261.253 109.911 264.386 102.333 264.386 94.1272H258.386C258.386 100.739 255.875 106.991 251.378 112.377L255.984 116.222ZM269 141.421C269 130.114 263.928 119.879 255.745 112.122L251.617 116.477C258.787 123.273 263 131.996 263 141.421H269ZM220.636 185.727C247.273 183.533 269 164.98 269 141.421H263C263 160.889 244.737 177.721 220.144 179.747L220.636 185.727ZM206.344 206.065C214.859 201.148 220.542 193.048 223.273 183.567L217.507 181.906C215.139 190.129 210.318 196.842 203.344 200.869L206.344 206.065ZM174.508 208.33C185.268 212.011 196.663 211.654 206.344 206.065L203.344 200.869C195.428 205.439 185.884 205.88 176.45 202.653L174.508 208.33ZM154.291 218.246C163.183 218.246 171.248 214.172 177.634 207.579L173.324 203.404C167.829 209.078 161.244 212.246 154.291 212.246V218.246ZM131.403 208.041C137.715 214.362 145.609 218.246 154.291 218.246V212.246C147.5 212.246 141.064 209.225 135.648 203.802L131.403 208.041ZM89.3686 217.419C103.362 225.498 121.432 220.6 135.511 208.17L131.54 203.673C118.471 215.21 103.223 218.49 92.3686 212.223L89.3686 217.419ZM75.9741 201.223C78.6108 208.063 83.0771 213.787 89.3686 217.419L92.3686 212.223C87.4336 209.374 83.7907 204.819 81.5726 199.065L75.9741 201.223ZM27.0184 208.609C33.169 214.76 42.072 216.692 51.4796 215.428C60.8965 214.163 71.1358 209.68 80.5827 202.537L76.9639 197.751C68.1662 204.404 58.8758 208.38 50.6806 209.481C42.4761 210.584 35.6846 208.79 31.261 204.366L27.0184 208.609ZM24.5372 169.39C18.0425 183.954 17.7353 199.326 27.0184 208.609L31.261 204.366C24.6047 197.71 23.9186 185.509 30.017 171.834L24.5372 169.39ZM0 139.114C0 154.032 10.8365 166.571 26.0561 173.352L28.4981 167.871C14.5941 161.676 6 150.856 6 139.114H0Z" fill="#917578" mask="url(#path-1-outside-1_203:9)"/>
<mask id="path-3-outside-2_203:9" maskUnits="userSpaceOnUse" x="66.9036" y="45.5429" width="136" height="141" fill="black">
<rect fill="white" x="66.9036" y="45.5429" width="136" height="141"/>
<path fill-rule="evenodd" clip-rule="evenodd" d="M165.278 84.6087C166.239 87.3393 166.798 90.6108 166.798 94.1272C166.798 103.683 162.667 111.43 157.57 111.43C153.457 111.43 149.973 106.385 148.781 99.4147C145.78 105.164 139.48 109.123 132.193 109.123C124.534 109.123 117.964 104.749 115.171 98.5204C114.74 102.746 113.037 105.899 110.285 106.774C105.428 108.319 99.1424 102.19 96.2454 93.0835C95.0106 89.2019 94.5907 85.4059 94.8916 82.2083C87.422 62.2037 79.0705 48.2846 74.8502 49.633C69.8749 51.2227 72.5254 73.4297 80.7702 99.2337C81.2135 100.621 81.664 101.991 82.1203 103.34C74.4544 111.672 69.9036 122.07 69.9036 133.347C69.9036 160.74 96.7586 182.947 129.886 182.947C163.013 182.947 189.868 160.74 189.868 133.347C189.868 122.068 185.316 111.669 177.649 103.337C193.94 81.7446 203.345 61.3887 198.659 57.8508C194.415 54.646 180.064 66.3388 165.278 84.6087Z"/>
</mask>
<path fill-rule="evenodd" clip-rule="evenodd" d="M165.278 84.6087C166.239 87.3393 166.798 90.6108 166.798 94.1272C166.798 103.683 162.667 111.43 157.57 111.43C153.457 111.43 149.973 106.385 148.781 99.4147C145.78 105.164 139.48 109.123 132.193 109.123C124.534 109.123 117.964 104.749 115.171 98.5204C114.74 102.746 113.037 105.899 110.285 106.774C105.428 108.319 99.1424 102.19 96.2454 93.0835C95.0106 89.2019 94.5907 85.4059 94.8916 82.2083C87.422 62.2037 79.0705 48.2846 74.8502 49.633C69.8749 51.2227 72.5254 73.4297 80.7702 99.2337C81.2135 100.621 81.664 101.991 82.1203 103.34C74.4544 111.672 69.9036 122.07 69.9036 133.347C69.9036 160.74 96.7586 182.947 129.886 182.947C163.013 182.947 189.868 160.74 189.868 133.347C189.868 122.068 185.316 111.669 177.649 103.337C193.94 81.7446 203.345 61.3887 198.659 57.8508C194.415 54.646 180.064 66.3388 165.278 84.6087Z" fill="#FFDCD3"/>
<path d="M165.278 84.6087L162.946 82.7214L161.891 84.0241L162.448 85.6048L165.278 84.6087ZM148.781 99.4147L151.738 98.9091L150.238 90.138L146.121 98.0267L148.781 99.4147ZM115.171 98.5204L117.909 97.293L113.325 87.0705L112.187 98.2157L115.171 98.5204ZM110.285 106.774L109.375 103.915L109.375 103.915L110.285 106.774ZM96.2454 93.0835L99.1043 92.174L99.1043 92.174L96.2454 93.0835ZM94.8916 82.2083L97.8784 82.4893L97.9429 81.8038L97.7021 81.1588L94.8916 82.2083ZM74.8502 49.633L75.7633 52.4907L74.8502 49.633ZM80.7702 99.2337L77.9125 100.147L77.9125 100.147L80.7702 99.2337ZM82.1203 103.34L84.328 105.372L85.5317 104.063L84.9622 102.379L82.1203 103.34ZM177.649 103.337L175.254 101.53L173.747 103.527L175.441 105.368L177.649 103.337ZM198.659 57.8508L196.852 60.2449L196.852 60.2449L198.659 57.8508ZM169.798 94.1272C169.798 90.3047 169.192 86.6932 168.107 83.6127L162.448 85.6048C163.286 87.9855 163.798 90.9168 163.798 94.1272H169.798ZM157.57 114.43C161.766 114.43 164.867 111.291 166.742 107.774C168.687 104.128 169.798 99.298 169.798 94.1272H163.798C163.798 98.5125 162.844 102.334 161.448 104.95C159.984 107.696 158.471 108.43 157.57 108.43V114.43ZM145.824 99.9203C146.475 103.728 147.778 107.193 149.645 109.788C151.49 112.353 154.185 114.43 157.57 114.43V108.43C156.842 108.43 155.738 107.984 154.515 106.284C153.314 104.614 152.279 102.071 151.738 98.9091L145.824 99.9203ZM132.193 112.123C140.566 112.123 147.909 107.57 151.44 100.803L146.121 98.0267C143.652 102.758 138.393 106.123 132.193 106.123V112.123ZM112.434 99.7479C115.728 107.094 123.395 112.123 132.193 112.123V106.123C125.673 106.123 120.201 102.404 117.909 97.293L112.434 99.7479ZM111.194 109.633C115.717 108.194 117.689 103.398 118.156 98.8252L112.187 98.2157C111.791 102.094 110.357 103.603 109.375 103.915L111.194 109.633ZM93.3866 93.993C94.9542 98.9204 97.4775 103.186 100.436 106.071C103.289 108.854 107.196 110.905 111.194 109.633L109.375 103.915C108.517 104.189 106.852 103.948 104.625 101.775C102.502 99.705 100.434 96.3529 99.1043 92.174L93.3866 93.993ZM91.9048 81.9272C91.5613 85.5783 92.0464 89.7802 93.3866 93.993L99.1043 92.174C97.9747 88.6235 97.6202 85.2336 97.8784 82.4893L91.9048 81.9272ZM97.7021 81.1588C93.9293 71.0549 89.8968 62.3824 86.2128 56.3497C84.3838 53.3547 82.5524 50.8628 80.7851 49.1727C79.9031 48.3292 78.9196 47.5709 77.8462 47.0886C76.751 46.5965 75.3746 46.316 73.9372 46.7753L75.7633 52.4907C75.3809 52.6129 75.1887 52.4724 75.3872 52.5616C75.6074 52.6605 76.0272 52.9247 76.6383 53.5091C77.8572 54.6747 79.3719 56.66 81.0921 59.4768C84.5063 65.0677 88.3843 73.3571 92.0812 83.2577L97.7021 81.1588ZM73.9372 46.7753C72.2363 47.3188 71.2183 48.6421 70.632 49.8672C70.0453 51.0929 69.7183 52.5543 69.5379 54.0706C69.1746 57.1232 69.3268 61.1252 69.8738 65.7085C70.9738 74.9251 73.7503 87.1201 77.9125 100.147L83.6279 98.3207C79.5453 85.5433 76.8741 73.7328 75.8315 64.9975C75.3073 60.6048 75.2144 57.1443 75.4958 54.7796C75.6377 53.5872 75.8555 52.8513 76.044 52.4575C76.2328 52.063 76.2203 52.3447 75.7633 52.4907L73.9372 46.7753ZM77.9125 100.147C78.361 101.55 78.8167 102.936 79.2784 104.301L84.9622 102.379C84.5113 101.046 84.0661 99.6921 83.6279 98.3207L77.9125 100.147ZM79.9126 101.309C71.8013 110.125 66.9036 121.228 66.9036 133.347H72.9036C72.9036 122.912 77.1075 113.219 84.328 105.372L79.9126 101.309ZM66.9036 133.347C66.9036 162.906 95.6605 185.947 129.886 185.947V179.947C97.8567 179.947 72.9036 158.575 72.9036 133.347H66.9036ZM129.886 185.947C164.112 185.947 192.868 162.906 192.868 133.347H186.868C186.868 158.575 161.915 179.947 129.886 179.947V185.947ZM192.868 133.347C192.868 121.226 187.969 110.122 179.856 101.305L175.441 105.368C182.663 113.216 186.868 122.91 186.868 133.347H192.868ZM180.043 105.144C188.278 94.2297 194.828 83.5579 198.744 75.0815C200.691 70.8661 202.057 67.0435 202.6 63.9284C202.87 62.3754 202.966 60.8329 202.727 59.4324C202.486 58.0127 201.852 56.5025 200.467 55.4566L196.852 60.2449C196.638 60.0836 196.735 59.9834 196.812 60.4384C196.893 60.9126 196.896 61.7096 196.688 62.8998C196.276 65.2712 195.151 68.5505 193.297 72.5653C189.608 80.5494 183.31 90.8517 175.254 101.53L180.043 105.144ZM200.467 55.4566C197.99 53.5859 194.835 54.3743 192.551 55.3529C190.013 56.4399 187.113 58.3646 184.04 60.8405C177.854 65.823 170.421 73.4846 162.946 82.7214L167.609 86.496C174.92 77.4629 182.056 70.1432 187.804 65.513C190.697 63.1826 193.104 61.6431 194.914 60.8681C196.976 59.9847 197.207 60.5133 196.852 60.2449L200.467 55.4566Z" fill="#907578" mask="url(#path-3-outside-2_203:9)"/>
<mask id="path-5-outside-3_203:9" maskUnits="userSpaceOnUse" x="113.044" y="145.342" width="43" height="34" fill="black">
<rect fill="white" x="113.044" y="145.342" width="43" height="34"/>
<path fill-rule="evenodd" clip-rule="evenodd" d="M134.5 176.026C144.693 176.026 152.956 169.829 152.956 162.184C152.956 154.539 144.693 148.342 134.5 148.342C124.307 148.342 116.044 154.539 116.044 162.184C116.044 169.829 124.307 176.026 134.5 176.026ZM127.579 163.338C127.579 165.249 126.546 166.798 125.272 166.798C123.998 166.798 122.965 165.249 122.965 163.338C122.965 161.427 123.998 159.877 125.272 159.877C126.546 159.877 127.579 161.427 127.579 163.338ZM143.728 163.338C143.728 165.249 142.695 166.798 141.421 166.798C140.147 166.798 139.114 165.249 139.114 163.338C139.114 161.427 140.147 159.877 141.421 159.877C142.695 159.877 143.728 161.427 143.728 163.338Z"/>
</mask>
<path fill-rule="evenodd" clip-rule="evenodd" d="M134.5 176.026C144.693 176.026 152.956 169.829 152.956 162.184C152.956 154.539 144.693 148.342 134.5 148.342C124.307 148.342 116.044 154.539 116.044 162.184C116.044 169.829 124.307 176.026 134.5 176.026ZM127.579 163.338C127.579 165.249 126.546 166.798 125.272 166.798C123.998 166.798 122.965 165.249 122.965 163.338C122.965 161.427 123.998 159.877 125.272 159.877C126.546 159.877 127.579 161.427 127.579 163.338ZM143.728 163.338C143.728 165.249 142.695 166.798 141.421 166.798C140.147 166.798 139.114 165.249 139.114 163.338C139.114 161.427 140.147 159.877 141.421 159.877C142.695 159.877 143.728 161.427 143.728 163.338Z" fill="#FDC5CC"/>
<path d="M149.956 162.184C149.956 164.851 148.522 167.493 145.75 169.572C142.978 171.651 139.01 173.026 134.5 173.026V179.026C140.183 179.026 145.443 177.302 149.35 174.372C153.259 171.441 155.956 167.163 155.956 162.184H149.956ZM134.5 151.342C139.01 151.342 142.978 152.717 145.75 154.796C148.522 156.875 149.956 159.518 149.956 162.184H155.956C155.956 157.206 153.259 152.927 149.35 149.996C145.443 147.066 140.183 145.342 134.5 145.342V151.342ZM119.044 162.184C119.044 159.518 120.478 156.875 123.25 154.796C126.022 152.717 129.99 151.342 134.5 151.342V145.342C128.817 145.342 123.557 147.066 119.65 149.996C115.741 152.927 113.044 157.206 113.044 162.184H119.044ZM134.5 173.026C129.99 173.026 126.022 171.651 123.25 169.572C120.478 167.493 119.044 164.851 119.044 162.184H113.044C113.044 167.163 115.741 171.441 119.65 174.372C123.557 177.302 128.817 179.026 134.5 179.026V173.026ZM125.272 169.798C127.224 169.798 128.624 168.611 129.399 167.449C130.188 166.265 130.579 164.803 130.579 163.338H124.579C124.579 163.784 124.453 164.052 124.407 164.121C124.388 164.149 124.426 164.08 124.563 163.993C124.713 163.898 124.96 163.798 125.272 163.798V169.798ZM119.965 163.338C119.965 164.803 120.355 166.265 121.144 167.449C121.92 168.611 123.32 169.798 125.272 169.798V163.798C125.584 163.798 125.831 163.898 125.981 163.993C126.118 164.08 126.156 164.149 126.137 164.121C126.091 164.052 125.965 163.784 125.965 163.338H119.965ZM125.272 156.877C123.32 156.877 121.92 158.064 121.144 159.227C120.355 160.41 119.965 161.872 119.965 163.338H125.965C125.965 162.892 126.091 162.624 126.137 162.555C126.156 162.527 126.118 162.595 125.981 162.682C125.831 162.778 125.584 162.877 125.272 162.877V156.877ZM130.579 163.338C130.579 161.872 130.188 160.41 129.399 159.227C128.624 158.064 127.224 156.877 125.272 156.877V162.877C124.96 162.877 124.713 162.778 124.563 162.682C124.426 162.595 124.388 162.527 124.407 162.555C124.453 162.624 124.579 162.892 124.579 163.338H130.579ZM141.421 169.798C143.373 169.798 144.773 168.611 145.549 167.449C146.338 166.265 146.728 164.803 146.728 163.338H140.728C140.728 163.784 140.602 164.052 140.556 164.121C140.537 164.149 140.575 164.08 140.712 163.993C140.862 163.898 141.109 163.798 141.421 163.798V169.798ZM136.114 163.338C136.114 164.803 136.505 166.265 137.294 167.449C138.069 168.611 139.469 169.798 141.421 169.798V163.798C141.733 163.798 141.98 163.898 142.13 163.993C142.267 164.08 142.305 164.149 142.286 164.121C142.24 164.052 142.114 163.784 142.114 163.338H136.114ZM141.421 156.877C139.469 156.877 138.069 158.064 137.294 159.227C136.505 160.41 136.114 161.873 136.114 163.338H142.114C142.114 162.892 142.24 162.624 142.286 162.555C142.305 162.527 142.267 162.595 142.13 162.682C141.98 162.778 141.733 162.877 141.421 162.877V156.877ZM146.728 163.338C146.728 161.873 146.338 160.41 145.549 159.227C144.773 158.064 143.373 156.877 141.421 156.877V162.877C141.109 162.877 140.862 162.778 140.712 162.682C140.575 162.595 140.537 162.527 140.556 162.555C140.602 162.624 140.728 162.892 140.728 163.338H146.728Z" fill="#907578" mask="url(#path-5-outside-3_203:9)"/>
<path fill-rule="evenodd" clip-rule="evenodd" d="M154.11 143.728C157.295 143.728 159.877 140.113 159.877 135.654C159.877 131.194 157.295 127.579 154.11 127.579C150.924 127.579 148.342 131.194 148.342 135.654C148.342 140.113 150.924 143.728 154.11 143.728ZM107.969 143.728C111.155 143.728 113.737 140.113 113.737 135.654C113.737 131.194 111.155 127.579 107.969 127.579C104.784 127.579 102.202 131.194 102.202 135.654C102.202 140.113 104.784 143.728 107.969 143.728Z" fill="#907578"/>
</svg>
